<?xml version="1.0" standalone="no"?><!-- Generator: Gravit.io --><svg xmlns="http://www.w3.org/2000/svg" xmlns:xlink="http://www.w3.org/1999/xlink" style="isolation:isolate" viewBox="0 0 900 600" width="900" height="600"><defs><clipPath id="_clipPath_Okll2Zr2OZFTwNFiLUdHtcSnqB9LyKeE"><rect width="900" height="600"/></clipPath></defs><g clip-path="url(#_clipPath_Okll2Zr2OZFTwNFiLUdHtcSnqB9LyKeE)"><rect width="900" height="600" style="fill:rgb(23,23,23)"/><g transform="matrix(1,0,0,1,32,59)"><text transform="matrix(1,0,0,1,0,156.6)" style="font-family:&quot;GOGOIA Deco&quot;;font-weight:400;font-size:180px;font-style:normal;fill:#ffffff;stroke:none;">GRUPO   </text><text transform="matrix(1,0,0,1,133.92,376.2)" style="font-family:&quot;GOGOIA Deco&quot;;font-weight:400;font-size:180px;font-style:normal;fill:#ffffff;stroke:none;">pRIMAVERA  </text></g><g><g><path d=" M 557.828 197.832 C 557.048 198.612 556.024 199.004 555 199.004 C 553.976 199.004 552.952 198.612 552.172 197.832 C 550.608 196.268 550.608 193.74 552.172 192.176 L 600.117 144.23 C 587.661 133.134 571.82 127.002 555 127.002 C 536.835 127.002 519.759 134.078 506.915 146.919 C 494.07 159.763 486.998 176.835 486.998 195.004 C 486.998 213.172 494.074 230.245 506.915 243.089 C 519.755 255.934 536.831 263.006 555 263.006 C 573.169 263.006 590.241 255.93 603.085 243.089 C 615.93 230.245 623.002 213.172 623.002 195.004 C 623.002 178.183 616.87 162.343 605.773 149.887 L 557.828 197.832 Z " fill="rgb(255,255,255)"/><path d=" M 555 91.001 C 557.212 91.001 559 89.213 559 87.001 L 559 63 C 559 60.788 557.212 59 555 59 C 552.788 59 551 60.788 551 63 L 551 87.001 C 551 89.213 552.788 91.001 555 91.001 Z " fill="rgb(255,255,255)"/><path d=" M 656.827 101.177 C 655.263 99.613 652.735 99.613 651.171 101.177 L 634.198 118.15 C 632.634 119.714 632.634 122.242 634.198 123.806 C 634.978 124.586 636.002 124.978 637.026 124.978 C 638.05 124.978 639.074 124.586 639.854 123.806 L 656.827 106.833 C 658.391 105.269 658.391 102.741 656.827 101.177 Z " fill="rgb(255,255,255)"/><path d=" M 458.829 101.177 C 457.265 99.613 454.737 99.613 453.173 101.177 C 451.609 102.741 451.609 105.269 453.173 106.833 L 470.146 123.806 C 470.926 124.586 471.95 124.978 472.974 124.978 C 473.998 124.978 475.022 124.586 475.802 123.806 C 477.366 122.242 477.366 119.714 475.802 118.15 L 458.829 101.177 Z " fill="rgb(255,255,255)"/><path d=" M 583.989 94.817 C 584.337 94.909 584.685 94.953 585.029 94.953 C 586.793 94.953 588.413 93.773 588.889 91.989 L 595.097 68.804 C 595.669 66.672 594.401 64.476 592.269 63.904 C 590.145 63.336 587.941 64.6 587.369 66.732 L 581.157 89.917 C 580.589 92.053 581.857 94.249 583.989 94.817 Z " fill="rgb(255,255,255)"/><path d=" M 521.111 91.989 C 521.587 93.777 523.203 94.953 524.971 94.953 C 525.315 94.953 525.663 94.909 526.011 94.817 C 528.143 94.245 529.411 92.053 528.839 89.917 L 522.627 66.732 C 522.055 64.596 519.863 63.332 517.727 63.904 C 515.591 64.476 514.327 66.668 514.899 68.804 L 521.111 91.989 Z " fill="rgb(255,255,255)"/><path d=" M 627.002 78.293 C 625.09 77.193 622.642 77.849 621.538 79.757 L 609.538 100.541 C 608.434 102.457 609.09 104.901 611.002 106.005 C 611.63 106.369 612.318 106.541 612.998 106.541 C 614.382 106.541 615.726 105.821 616.466 104.541 L 628.466 83.757 C 629.574 81.845 628.918 79.401 627.002 78.293 Z " fill="rgb(255,255,255)"/><path d=" M 497.002 106.545 C 497.682 106.545 498.37 106.373 498.998 106.009 C 500.914 104.905 501.57 102.457 500.462 100.545 L 488.462 79.761 C 487.354 77.841 484.902 77.193 482.998 78.293 C 481.086 79.401 480.426 81.845 481.534 83.757 L 493.534 104.541 C 494.274 105.829 495.618 106.545 497.002 106.545 Z " fill="rgb(255,255,255)"/></g></g></g></svg>